<?xml version="1.0" standalone="no"?>
<!DOCTYPE svg PUBLIC "-//W3C//DTD SVG 20010904//EN"
 "http://www.w3.org/TR/2001/REC-SVG-20010904/DTD/svg10.dtd">
<svg version="1.0" xmlns="http://www.w3.org/2000/svg"
 width="512.000000pt" height="512.000000pt" viewBox="0 0 512.000000 512.000000"
 preserveAspectRatio="xMidYMid meet">
<metadata>
Created by potrace 1.11, written by Peter Selinger 2001-2013
</metadata>
<g transform="translate(0.000000,512.000000) scale(0.100000,-0.100000)"
fill="#000000" stroke="none">
<path d="M3015 4800 c-46 -18 -63 -66 -40 -110 24 -46 78 -54 119 -17 38 34
38 75 1 112 -25 26 -45 30 -80 15z"/>
<path d="M2488 4783 c-81 -51 -43 -178 53 -176 93 2 133 125 56 172 -33 21
-79 23 -109 4z"/>
<path d="M2034 4654 c-31 -7 -64 -47 -73 -87 -20 -87 67 -160 152 -128 36 14
55 37 67 81 23 84 -54 153 -146 134z"/>
<path d="M2783 4479 c-63 -40 -79 -142 -30 -195 87 -93 231 -39 231 87 0 102
-114 164 -201 108z"/>
<path d="M2386 4441 c-136 -79 -81 -281 76 -281 75 0 148 74 148 150 0 47 -38
109 -80 131 -43 23 -105 23 -144 0z"/>
<path d="M3201 4447 c-109 -56 -72 -217 50 -217 62 0 106 41 113 105 9 86 -87
152 -163 112z"/>
<path d="M1089 4411 c-82 -83 29 -203 118 -127 39 34 39 99 0 130 -41 33 -82
32 -118 -3z"/>
<path d="M1605 4396 c-101 -45 -114 -180 -22 -236 123 -75 259 74 176 192 -33
46 -103 66 -154 44z"/>
<path d="M3582 4294 c-73 -30 -77 -147 -7 -184 73 -38 159 11 157 90 -1 35
-30 88 -52 95 -41 12 -69 12 -98 -1z"/>
<path d="M2037 4285 c-50 -17 -76 -41 -98 -91 -45 -101 23 -218 132 -228 76
-7 138 29 169 98 59 130 -68 269 -203 221z"/>
<path d="M1275 4036 c-34 -15 -66 -49 -82 -87 -15 -36 -8 -108 15 -138 95
-129 287 -70 284 87 -3 109 -117 182 -217 138z"/>
<path d="M1700 4008 c-55 -38 -74 -72 -74 -131 0 -69 29 -118 89 -146 122 -57
247 46 221 182 -7 39 -54 93 -92 107 -45 17 -109 12 -144 -12z"/>
<path d="M762 3929 c-120 -48 -79 -219 52 -219 78 0 130 95 92 168 -26 50 -91
73 -144 51z"/>
<path d="M1469 3656 c-49 -33 -65 -76 -60 -153 2 -36 58 -91 103 -104 58 -15
120 10 155 62 22 33 25 47 21 90 -4 42 -12 57 -41 87 -30 30 -44 36 -89 39
-44 4 -59 0 -89 -21z"/>
<path d="M1070 3618 c-136 -37 -179 -203 -80 -307 45 -46 109 -61 180 -41 103
29 156 161 105 259 -35 69 -128 109 -205 89z"/>
<path d="M542 3393 c-86 -42 -113 -150 -59 -232 87 -131 292 -68 290 90 -1
119 -124 195 -231 142z"/>
<path d="M1353 3274 c-58 -29 -80 -112 -43 -171 24 -40 50 -54 100 -55 96 -1
153 98 104 181 -34 57 -99 75 -161 45z"/>
<path d="M940 3129 c-150 -66 -153 -284 -6 -353 150 -70 312 59 276 220 -27
118 -158 182 -270 133z"/>
<path d="M1332 2854 c-61 -25 -80 -111 -36 -163 64 -76 189 -27 182 73 -4 71
-80 118 -146 90z"/>
<path d="M538 2797 c-70 -17 -128 -98 -128 -177 1 -37 34 -104 64 -128 139
-109 336 27 279 193 -31 90 -118 136 -215 112z"/>
<path d="M976 2645 c-175 -62 -151 -329 33 -360 184 -31 295 195 161 324 -52
49 -121 62 -194 36z"/>
<path d="M1408 2443 c-50 -31 -55 -93 -12 -136 30 -30 87 -29 118 3 28 27 28
93 1 119 -29 28 -75 34 -107 14z"/>
<path d="M652 2227 c-48 -18 -97 -61 -117 -103 -69 -146 57 -312 214 -282 181
34 225 270 69 366 -41 25 -122 34 -166 19z"/>
<path d="M1135 2136 c-119 -53 -120 -229 -2 -284 132 -63 266 63 213 201 -30
80 -130 119 -211 83z"/>
<path d="M1584 2070 c-11 -5 -27 -23 -34 -40 -38 -92 92 -155 134 -65 32 67
-29 131 -100 105z"/>
<path d="M938 1709 c-153 -51 -198 -248 -82 -362 40 -40 74 -56 131 -61 96
-10 180 37 220 122 85 178 -81 365 -269 301z"/>
<path d="M1435 1718 c-42 -15 -65 -37 -85 -81 -32 -71 -4 -147 70 -184 72 -37
153 -11 189 62 58 116 -53 246 -174 203z"/>
<path d="M1800 1372 c-70 -36 -94 -108 -59 -179 59 -120 242 -73 242 62 0 98
-98 160 -183 117z"/>
<path d="M1337 1286 c-96 -35 -161 -131 -159 -232 4 -215 263 -319 416 -168
109 108 83 302 -50 380 -55 32 -149 41 -207 20z"/>
<path d="M2243 1128 c-29 -14 -63 -83 -57 -116 8 -42 32 -72 71 -88 65 -28
151 20 155 86 2 52 -3 67 -33 98 -26 26 -39 32 -73 31 -22 0 -51 -5 -63 -11z"/>
<path d="M2723 1006 c-22 -19 -28 -32 -28 -66 0 -109 145 -122 176 -15 22 79
-83 137 -148 81z"/>
<path d="M1865 951 c-115 -29 -180 -121 -172 -242 8 -130 96 -212 227 -213
245 -2 324 324 105 436 -43 23 -113 31 -160 19z"/>
<path d="M3645 800 c-96 -29 -138 -154 -81 -240 31 -47 70 -70 125 -72 124 -5
204 120 149 231 -33 68 -118 103 -193 81z"/>
<path d="M2415 721 c-144 -66 -174 -248 -59 -350 86 -76 197 -77 284 -5 69 59
92 176 50 256 -53 101 -175 145 -275 99z"/>
<path d="M3054 673 c-37 -7 -101 -74 -113 -118 -35 -132 59 -237 199 -225 66
6 134 77 143 148 15 131 -92 222 -229 195z"/>
</g>
</svg>
